<svg height="511pt" viewBox="1 -37 511.99988 511" width="511pt" xmlns="http://www.w3.org/2000/svg"><path d="m375.167969 85.1875c-9.585938.753906-18.300781-5.703125-20.558594-15.050781-6.925781-28.703125 1.800781-54.097657 7.050781-65.757813 1.039063-2.304687-1.320312-4.660156-3.625-3.628906l-18.90625 8.441406c-6.441406 2.875-11.125 8.4375-12.980468 15.019532-.25.898437-1.492188.898437-1.746094 0-1.851563-6.582032-6.539063-12.144532-12.976563-15.019532l-18.90625-8.441406c-2.308593-1.03125-4.664062 1.324219-3.628906 3.628906 5.257813 11.675782 14.003906 37.113282 7.027344 65.859375-2.265625 9.339844-10.960938 15.777344-20.542969 15.042969-51.734375-3.976562-101.558594 34.738281-124.164062 98.144531l157.6875 157.6875c6.550781 6.546875 8.90625 16.261719 5.90625 25.023438-11.980469 34.964843-38.863282 56.933593-72.398438 65.007812 26.667969 7.332031 55.546875 3.445313 82.871094-14.71875 84.507812 56.175781 186.722656-24.464843 186.722656-156.660156 0-105.5-66.167969-180.140625-136.832031-174.578125zm0 0" fill="#da1c4b"/><path d="m320.511719 85.1875c9.585937.753906 18.300781-5.703125 20.558593-15.050781 5.886719-24.386719.472657-46.375-4.511718-59.59375-5.109375 3.089843-8.8125 8-10.410156 13.667969-.25.902343-1.492188.902343-1.746094 0-1.851563-6.578126-6.539063-12.140626-12.976563-15.015626l-18.90625-8.445312c-2.308593-1.03125-4.664062 1.324219-3.628906 3.628906 5.257813 11.675782 14.003906 37.117188 7.027344 65.863282-2.265625 9.335937-10.960938 15.777343-20.542969 15.039062-51.734375-3.976562-101.558594 34.738281-124.164062 98.144531l35.871093 35.871094c14.351563-83.519531 72.199219-138.925781 133.429688-134.109375zm0 0" fill="#bf0443"/><path d="m266.085938 422.542969c-7.394532 3.71875-15.332032 6.589843-23.679688 8.601562 15.613281 4.292969 31.984375 4.730469 48.355469.71875-8.460938-2.015625-16.726563-5.148437-24.675781-9.320312zm0 0" fill="#bf0443"/><path d="m334.375 132.34375c-5.308594 4.285156-12.890625 4.285156-18.199219 0-55.789062-45.007812-120.726562-2.710938-141.714843 74.332031l134.4375 134.4375c6.550781 6.546875 8.90625 16.261719 5.90625 25.023438-4.460938 13.023437-10.996094 24.242187-19.164063 33.613281 6.917969-2.980469 13.792969-7.125 20.535156-12.566406 5.3125-4.285156 12.890625-4.285156 18.203125 0 67.269532 54.273437 148.632813-18.558594 148.632813-127.417969 0-108.96875-81.457031-181.621094-148.636719-127.421875zm0 0" fill="#f98c96"/><path d="m325.277344 135.558594c-3.222656 0-6.445313-1.070313-9.101563-3.214844-55.789062-45.007812-120.726562-2.710938-141.714843 74.332031l134.4375 134.4375c6.550781 6.546875 8.90625 16.261719 5.90625 25.023438-4.460938 13.023437-10.996094 24.242187-19.164063 33.613281 6.917969-2.980469 13.792969-7.125 20.535156-12.566406 2.65625-2.144532 5.878907-3.214844 9.101563-3.214844zm0 0" fill="#f27084"/><path d="m187.082031 219.296875c6.660157-38.765625 22.699219-71.472656 44.089844-94.914063-25.339844 14.800782-46.363281 44.320313-56.710937 82.292969zm0 0" fill="#ea5471"/><path d="m41.417969 72.175781c-.003907 0-.007813-.003906-.011719-.007812-6.035156-3.382813-13.371094-4.011719-20.039062-1.460938l-19.578126 7.492188c-2.386718.910156-2.386718 4.285156.003907 5.191406 12.117187 4.59375 36.585937 16.546875 52.167969 42.113281 5.0625 8.304688 3.449218 19.140625-3.9375 25.46875-54.078126 46.359375-49.453126 146.40625 26.957031 222.820313 88.4375 88.4375 211.558593 81.628906 241.675781-6.269531 3.039062-8.871094.652344-18.703126-5.976562-25.332032l-267.421876-267.421875c-1.101562-1.101562-2.46875-1.847656-3.839843-2.59375zm0 0" fill="#e2385e"/><path d="m128.285156 373.792969c-76.410156-76.414063-81.035156-176.460938-26.957031-222.820313 4.058594-3.480468 6.359375-8.316406 6.785156-13.347656l-53.742187-53.742188c-.4375-.171874-.863282-.335937-1.273438-.492187-1.1875-.449219-1.78125-1.507813-1.789062-2.570313l-6.050782-6.050781c-1.101562-1.101562-2.46875-1.847656-3.839843-2.59375-.003907 0-.007813-.003906-.011719-.007812-6.039062-3.382813-13.375-4.011719-20.039062-1.460938l-19.574219 7.492188c-2.386719.910156-2.390625 4.285156 0 5.191406 12.121093 4.59375 36.585937 16.546875 52.167969 42.113281 5.0625 8.304688 3.449218 19.140625-3.933594 25.46875-54.082032 46.359375-49.457032 146.40625 26.957031 222.820313 50.832031 50.832031 113.117187 70.1875 162.621094 60.773437-37.351563-6.433594-76.953125-26.410156-111.320313-60.773437zm0 0" fill="#da1c4b"/><path d="m296.695312 288.425781c-5.644531-5.644531-14.796874-5.644531-20.441406 0-5.644531 5.644531-5.644531 14.796875 0 20.441407 5.644532 5.644531 14.796875 5.644531 20.441406 0 5.644532-5.644532 5.644532-14.796876 0-20.441407zm0 0" fill="#ea5471"/><path d="m294.886719 308.867188c-5.644531-5.644532-5.644531-14.796876 0-20.441407.292969-.292969.597656-.558593.90625-.816406-5.679688-4.804687-14.183594-4.539063-19.535157.816406-5.648437 5.644531-5.648437 14.796875 0 20.441407 5.351563 5.355468 13.855469 5.621093 19.535157.820312-.308594-.261719-.613281-.527344-.90625-.820312zm0 0" fill="#e2385e"/><path d="m112.914062 155.457031c-87.417968 9.347657-92.71875 120.054688-15.183593 197.585938 77.53125 77.53125 188.242187 72.210937 197.585937-15.183594.367188-3.433594 1.910156-6.507813 4.214844-8.816406l-177.800781-177.800781c-2.308594 2.304687-5.382813 3.847656-8.816407 4.214843zm0 0" fill="#f98c96"/><path d="m143.082031 387.433594c-5.019531-4.269532-9.960937-8.808594-14.796875-13.640625-71.71875-71.71875-80.191406-164.261719-36.25-213.6875-66.816406 23.667969-65.113281 122.128906 5.695313 192.9375 14.269531 14.273437 29.667969 25.726562 45.351562 34.390625zm0 0" fill="#ea5471"/><path d="m120.214844 201.949219c-5.648438-5.644531-14.800782-5.644531-20.445313 0s-5.644531 14.796875 0 20.441406 14.796875 5.644531 20.445313 0c5.644531-5.644531 5.644531-14.796875 0-20.441406zm0 0" fill="#ea5471"/><path d="m118.40625 222.394531c-5.644531-5.648437-5.644531-14.800781 0-20.445312.289062-.289063.59375-.554688.902344-.816407-5.675782-4.804687-14.183594-4.539062-19.535156.816407-5.644532 5.644531-5.644532 14.796875 0 20.445312 5.351562 5.351563 13.859374 5.621094 19.535156.816407-.308594-.261719-.613282-.527344-.902344-.816407zm0 0" fill="#e2385e"/><path d="m168.992188 247.53125c-5.648438-5.644531-14.800782-5.644531-20.445313 0s-5.644531 14.796875 0 20.441406c5.644531 5.644532 14.796875 5.644532 20.445313 0 5.644531-5.644531 5.644531-14.796875 0-20.441406zm0 0" fill="#ea5471"/><path d="m167.183594 267.972656c-5.644532-5.644531-5.644532-14.796875 0-20.441406.289062-.292969.597656-.558594.902344-.820312-5.675782-4.800782-14.179688-4.535157-19.535157.820312-5.644531 5.644531-5.644531 14.796875 0 20.441406 5.355469 5.355469 13.859375 5.621094 19.535157.820313-.304688-.261719-.613282-.527344-.902344-.820313zm0 0" fill="#e2385e"/><path d="m112.21875 264.03125c-5.644531-5.644531-14.796875-5.644531-20.441406 0-5.644532 5.644531-5.644532 14.796875 0 20.445312 5.644531 5.644532 14.796875 5.644532 20.441406 0 5.644531-5.648437 5.644531-14.800781 0-20.445312zm0 0" fill="#ea5471"/><path d="m110.414062 284.476562c-5.644531-5.644531-5.644531-14.800781 0-20.445312.289063-.289062.597657-.554688.902344-.816406-5.675781-4.800782-14.179687-4.535156-19.535156.816406-5.644531 5.644531-5.644531 14.800781 0 20.445312 5.355469 5.351563 13.859375 5.621094 19.535156.816407-.304687-.257813-.613281-.527344-.902344-.816407zm0 0" fill="#e2385e"/><path d="m220.90625 285.523438c-5.644531-5.644532-14.796875-5.644532-20.441406 0-5.644532 5.644531-5.644532 14.796874 0 20.441406 5.644531 5.644531 14.796875 5.644531 20.441406 0 5.648438-5.644532 5.648438-14.796875 0-20.441406zm0 0" fill="#ea5471"/><path d="m219.101562 305.964844c-5.644531-5.644532-5.644531-14.796875 0-20.441406.289063-.289063.597657-.558594.90625-.816407-5.679687-4.804687-14.183593-4.539062-19.539062.816407-5.644531 5.644531-5.644531 14.796874 0 20.441406 5.355469 5.355468 13.859375 5.621094 19.539062.820312-.308593-.261718-.617187-.527344-.90625-.820312zm0 0" fill="#e2385e"/><path d="m231.46875 346.308594c-5.644531-5.644532-14.796875-5.644532-20.441406 0-5.648438 5.644531-5.648438 14.796875 0 20.441406 5.644531 5.644531 14.796875 5.644531 20.441406 0s5.644531-14.796875 0-20.441406zm0 0" fill="#ea5471"/><path d="m229.660156 366.75c-5.644531-5.644531-5.644531-14.796875 0-20.441406.292969-.292969.597656-.558594.90625-.820313-5.679687-4.800781-14.183594-4.535156-19.539062.820313-5.644532 5.644531-5.644532 14.796875 0 20.441406 5.355468 5.355469 13.859375 5.621094 19.539062.820312-.308594-.261718-.613281-.527343-.90625-.820312zm0 0" fill="#e2385e"/><path d="m162.699219 324.929688c-5.644531-5.644532-14.796875-5.644532-20.441407 0-5.644531 5.644531-5.644531 14.796874 0 20.441406 5.644532 5.644531 14.796876 5.644531 20.441407 0 5.644531-5.644532 5.644531-14.796875 0-20.441406zm0 0" fill="#ea5471"/><path d="m160.894531 345.371094c-5.648437-5.644532-5.648437-14.796875 0-20.441406.289063-.289063.59375-.558594.902344-.816407-5.679687-4.804687-14.183594-4.539062-19.535156.816407-5.644531 5.644531-5.644531 14.796874 0 20.441406 5.351562 5.355468 13.855469 5.621094 19.535156.820312-.308594-.261718-.613281-.527344-.902344-.820312zm0 0" fill="#e2385e"/><path d="m284.734375 159.703125c-5.644531-5.644531-14.796875-5.644531-20.441406 0s-5.644531 14.796875 0 20.441406 14.796875 5.644531 20.441406 0 5.644531-14.796875 0-20.441406zm0 0" fill="#ea5471"/><path d="m282.925781 180.144531c-5.644531-5.644531-5.644531-14.796875 0-20.441406.292969-.292969.597657-.558594.90625-.820313-5.679687-4.800781-14.183593-4.535156-19.539062.820313-5.644531 5.644531-5.644531 14.796875 0 20.441406 5.355469 5.355469 13.859375 5.621094 19.539062.820313-.308593-.261719-.613281-.527344-.90625-.820313zm0 0" fill="#e2385e"/><path d="m235.78125 197.488281c-5.644531-5.644531-14.796875-5.644531-20.441406 0-5.644532 5.644531-5.644532 14.796875 0 20.441407 5.644531 5.648437 14.796875 5.648437 20.441406 0 5.648438-5.644532 5.648438-14.796876 0-20.441407zm0 0" fill="#ea5471"/><path d="m233.976562 217.933594c-5.648437-5.648438-5.648437-14.800782 0-20.445313.289063-.289062.59375-.554687.902344-.816406-5.679687-4.804687-14.183594-4.539063-19.535156.816406-5.644531 5.644531-5.644531 14.796875 0 20.445313 5.351562 5.351562 13.855469 5.617187 19.535156.816406-.308594-.261719-.613281-.527344-.902344-.816406zm0 0" fill="#e2385e"/><path d="m286.839844 225.648438c-5.644532-5.644532-14.796875-5.644532-20.441406 0-5.644532 5.644531-5.644532 14.796874 0 20.441406 5.644531 5.648437 14.796874 5.648437 20.441406 0 5.644531-5.644532 5.644531-14.796875 0-20.441406zm0 0" fill="#ea5471"/><path d="m285.03125 246.089844c-5.644531-5.644532-5.644531-14.796875 0-20.441406.292969-.289063.597656-.558594.90625-.816407-5.679688-4.804687-14.183594-4.539062-19.539062.816407-5.644532 5.644531-5.644532 14.796874 0 20.441406 5.355468 5.355468 13.859374 5.621094 19.539062.820312-.308594-.261718-.613281-.527344-.90625-.820312zm0 0" fill="#e2385e"/><path d="m374.292969 288.425781c-5.644531-5.644531-14.796875-5.644531-20.441407 0-5.648437 5.644531-5.648437 14.796875 0 20.441407 5.644532 5.648437 14.796876 5.648437 20.441407 0 5.644531-5.644532 5.644531-14.796876 0-20.441407zm0 0" fill="#ea5471"/><path d="m372.484375 308.867188c-5.644531-5.644532-5.644531-14.796876 0-20.441407.292969-.292969.597656-.558593.90625-.816406-5.679687-4.804687-14.183594-4.539063-19.535156.816406-5.648438 5.644531-5.648438 14.796875 0 20.441407 5.351562 5.355468 13.855469 5.621093 19.535156.820312-.308594-.261719-.613281-.527344-.90625-.820312zm0 0" fill="#e2385e"/><path d="m409.339844 338.289062c-5.648438-5.644531-14.800782-5.644531-20.445313 0-5.644531 5.644532-5.644531 14.796876 0 20.441407s14.796875 5.644531 20.445313 0c5.644531-5.644531 5.644531-14.796875 0-20.441407zm0 0" fill="#ea5471"/><path d="m407.53125 358.730469c-5.644531-5.644531-5.644531-14.796875 0-20.441407.292969-.292968.597656-.558593.90625-.820312-5.679688-4.800781-14.183594-4.535156-19.539062.820312-5.644532 5.644532-5.644532 14.796876 0 20.441407 5.355468 5.355469 13.859374 5.621093 19.539062.816406-.308594-.257813-.613281-.523437-.90625-.816406zm0 0" fill="#e2385e"/><path d="m442.574219 275.304688c-5.644531-5.644532-14.796875-5.644532-20.441407 0-5.644531 5.644531-5.644531 14.796874 0 20.445312 5.644532 5.644531 14.796876 5.644531 20.441407 0 5.644531-5.648438 5.644531-14.800781 0-20.445312zm0 0" fill="#ea5471"/><path d="m440.769531 295.746094c-5.644531-5.644532-5.644531-14.796875 0-20.441406.289063-.289063.597657-.558594.90625-.816407-5.679687-4.804687-14.183593-4.539062-19.539062.816407-5.644531 5.644531-5.644531 14.796874 0 20.441406 5.355469 5.355468 13.859375 5.621094 19.539062.820312-.308593-.261718-.617187-.527344-.90625-.820312zm0 0" fill="#e2385e"/><path d="m383.933594 225.703125c-5.644532-5.644531-14.796875-5.644531-20.441406 0-5.644532 5.648437-5.644532 14.800781 0 20.445313 5.644531 5.644531 14.796874 5.644531 20.441406 0 5.644531-5.644532 5.644531-14.796876 0-20.445313zm0 0" fill="#ea5471"/><path d="m382.128906 246.148438c-5.644531-5.648438-5.644531-14.800782 0-20.445313.289063-.289063.597656-.554687.902344-.816406-5.675781-4.804688-14.179688-4.535157-19.535156.816406-5.644532 5.644531-5.644532 14.796875 0 20.445313 5.355468 5.351562 13.859375 5.621093 19.535156.816406-.304688-.261719-.613281-.527344-.902344-.816406zm0 0" fill="#e2385e"/><path d="m435.191406 197.546875c-5.648437-5.648437-14.800781-5.648437-20.445312 0-5.644532 5.644531-5.644532 14.796875 0 20.441406 5.644531 5.644531 14.796875 5.644531 20.445312 0 5.644532-5.644531 5.644532-14.796875 0-20.441406zm0 0" fill="#ea5471"/><path d="m433.382812 217.988281c-5.644531-5.648437-5.644531-14.800781 0-20.445312.292969-.289063.597657-.554688.90625-.816407-5.679687-4.804687-14.183593-4.535156-19.539062.816407-5.644531 5.644531-5.644531 14.796875 0 20.445312 5.355469 5.351563 13.859375 5.621094 19.539062.816407-.308593-.261719-.613281-.527344-.90625-.816407zm0 0" fill="#e2385e"/><path d="m386.253906 159.703125c-5.644531-5.644531-14.796875-5.644531-20.441406 0s-5.644531 14.796875 0 20.445313c5.644531 5.644531 14.796875 5.644531 20.441406 0 5.644532-5.648438 5.644532-14.800782 0-20.445313zm0 0" fill="#ea5471"/><path d="m384.445312 180.144531c-5.644531-5.644531-5.644531-14.796875 0-20.441406.292969-.292969.597657-.558594.90625-.820313-5.679687-4.800781-14.183593-4.535156-19.535156.820313-5.648437 5.644531-5.648437 14.796875 0 20.441406 5.351563 5.355469 13.855469 5.621094 19.535156.820313-.308593-.261719-.613281-.527344-.90625-.820313zm0 0" fill="#e2385e"/></svg>